<?xml version="1.0" standalone="no"?>
<!DOCTYPE svg PUBLIC "-//W3C//DTD SVG 20010904//EN"
 "http://www.w3.org/TR/2001/REC-SVG-20010904/DTD/svg10.dtd">
<svg version="1.0" xmlns="http://www.w3.org/2000/svg"
 width="22" height="24" viewBox="0 0 225.000000 225.000000"
 preserveAspectRatio="xMidYMid meet">

<g transform="translate(0.000000,225.000000) scale(0.100000,-0.100000)"
fill="#000000" stroke="none">
<path d="M0 1125 l0 -1125 1125 0 1125 0 0 1125 0 1125 -1125 0 -1125 0 0
-1125z m2158 -3 l2 -1032 -1032 2 -1033 3 -3 1020 c-1 561 0 1026 3 1033 3 10
215 12 1032 10 l1028 -3 3 -1033z"/>
<path d="M773 1810 c-21 -9 -23 -16 -23 -81 0 -71 0 -71 25 -65 99 25 168 12
200 -38 9 -14 32 -66 51 -116 38 -103 41 -81 -36 -260 -27 -63 -76 -180 -110
-260 -33 -80 -65 -154 -70 -165 -5 -11 -34 -81 -65 -155 -30 -74 -64 -154 -75
-176 -10 -23 -16 -45 -13 -48 12 -12 170 -6 181 7 5 6 75 176 155 376 81 201
148 358 151 350 125 -362 229 -637 254 -668 43 -53 87 -75 152 -76 86 0 90 3
90 83 l0 68 -35 0 c-61 0 -79 30 -161 260 -127 356 -244 690 -244 698 0 8 -13
38 -53 125 -28 60 -74 111 -122 132 -44 20 -210 26 -252 9z"/>
</g>
</svg>
