<?xml version="1.0" standalone="no"?>
<!DOCTYPE svg PUBLIC "-//W3C//DTD SVG 20010904//EN"
 "http://www.w3.org/TR/2001/REC-SVG-20010904/DTD/svg10.dtd">
<svg version="1.0" xmlns="http://www.w3.org/2000/svg"
 width="22" height="24" viewBox="0 0 1158.000000 568.000000"
 preserveAspectRatio="xMidYMid meet">

<g transform="translate(0.000000,568.000000) scale(0.100000,-0.100000)"
fill="#000000" stroke="none">
<path d="M5205 5379 c-2399 -120 -4330 -934 -4808 -2025 -144 -329 -144 -699
0 -1028 443 -1012 2143 -1794 4328 -1991 335 -30 466 -36 915 -42 462 -6 719
2 1100 33 2040 164 3698 838 4304 1749 205 307 286 650 231 971 -202 1176
-2091 2126 -4600 2314 -404 30 -1075 39 -1470 19z m1035 -189 c1783 -76 3318
-519 4186 -1211 477 -380 714 -821 667 -1241 -42 -370 -265 -716 -669 -1038
-1194 -953 -3697 -1424 -6034 -1134 -1540 190 -2807 679 -3461 1335 -217 218
-350 436 -416 686 -23 86 -26 118 -26 253 0 135 3 167 26 253 151 568 718
1069 1652 1462 1097 461 2612 697 4075 635z"/>
<path d="M5715 4882 c-3 -3 -5 -29 -5 -57 l0 -52 -97 -7 c-373 -27 -710 -115
-1014 -266 -573 -283 -954 -743 -1070 -1290 -32 -152 -33 -429 -2 -585 127
-628 609 -1144 1313 -1407 204 -76 489 -139 696 -153 49 -3 108 -8 132 -11
l42 -5 0 -73 0 -73 78 1 77 1 3 70 c2 40 8 73 15 77 7 4 37 8 67 8 218 1 592
83 842 185 659 269 1102 752 1238 1350 27 116 38 384 21 508 -51 380 -234 728
-532 1011 -400 381 -940 606 -1556 651 l-93 7 0 53 c0 44 -3 55 -19 60 -22 7
-128 4 -136 -3z m-7 -1969 l-3 -1698 -75 3 c-354 15 -769 134 -1069 306 -670
383 -1003 1021 -871 1667 137 672 784 1221 1620 1375 123 22 265 39 363 43
l37 1 -2 -1697z m462 1666 c339 -48 675 -173 945 -349 136 -90 184 -128 308
-249 239 -232 386 -492 453 -801 15 -67 19 -126 19 -275 -1 -208 -13 -282 -77
-465 -220 -624 -906 -1108 -1708 -1204 -69 -8 -151 -17 -182 -19 l-58 -4 0
1700 0 1699 83 -7 c45 -3 143 -15 217 -26z"/>
<path d="M5385 4476 c-61 -27 -397 -338 -382 -353 7 -7 284 -42 385 -49 l102
-7 0 212 0 211 -37 0 c-21 -1 -51 -7 -68 -14z"/>
<path d="M5020 4378 c-25 -18 -94 -70 -154 -117 l-110 -86 44 -9 c41 -9 44 -8
73 25 16 19 70 76 119 127 50 50 87 92 82 92 -5 -1 -29 -15 -54 -32z"/>
<path d="M4418 4087 c-98 -75 -189 -158 -265 -246 -101 -115 -100 -113 -53
-140 l39 -22 42 63 c63 94 133 182 226 284 46 51 83 95 83 98 0 13 -17 4 -72
-37z"/>
<path d="M4550 3977 c-136 -142 -289 -342 -273 -358 8 -7 197 -69 212 -69 4 0
16 21 26 48 40 107 178 364 223 415 19 21 19 21 -46 40 l-53 15 -89 -91z"/>
<path d="M4844 3923 c-96 -147 -160 -268 -199 -375 l-14 -37 87 -20 c206 -48
528 -91 685 -91 l87 0 0 263 0 264 -142 12 c-130 12 -347 40 -423 56 -29 6
-33 3 -81 -72z"/>
<path d="M3935 3520 c-52 -104 -76 -164 -105 -270 -11 -41 -20 -75 -20 -76 0
-5 104 -84 110 -84 4 0 12 32 19 70 14 84 61 235 102 327 16 37 26 69 22 73
-4 4 -25 17 -45 29 l-37 22 -46 -91z"/>
<path d="M4187 3473 c-58 -118 -113 -301 -123 -414 l-7 -68 57 -36 c31 -19
102 -58 159 -86 l102 -50 7 128 c8 153 22 257 50 376 11 49 18 90 16 91 -1 2
-50 19 -108 38 -58 19 -113 38 -122 42 -12 6 -20 0 -31 -21z"/>
<path d="M4562 3278 c-36 -168 -57 -469 -34 -505 11 -18 105 -49 247 -83 180
-43 352 -68 643 -95 l72 -7 0 334 0 335 -135 7 c-212 10 -462 45 -663 92 -57
13 -105 24 -106 24 -1 0 -11 -46 -24 -102z"/>
<path d="M3790 2891 c0 -124 16 -235 52 -359 19 -65 27 -79 72 -118 76 -65
141 -111 134 -94 -74 170 -114 326 -127 489 -5 62 -11 113 -13 115 -1 1 -29
21 -60 44 l-58 43 0 -120z"/>
<path d="M4060 2790 c0 -95 68 -321 138 -460 90 -179 103 -194 220 -251 86
-42 174 -79 188 -79 1 0 -17 42 -41 94 -61 130 -119 308 -146 449 l-24 119
-40 16 c-22 9 -94 43 -160 76 -66 33 -123 62 -127 64 -5 2 -8 -10 -8 -28z"/>
<path d="M4550 2592 c0 -31 38 -176 70 -267 42 -117 80 -201 138 -302 42 -75
50 -83 87 -92 106 -26 441 -61 593 -61 l52 0 0 290 c0 191 -3 290 -10 290 -45
0 -420 44 -515 60 -130 22 -317 65 -377 86 -34 12 -38 11 -38 -4z"/>
<path d="M4082 2068 c78 -103 213 -238 315 -316 129 -97 144 -102 67 -22 -93
98 -129 139 -197 228 -43 56 -77 87 -147 132 -50 33 -93 60 -96 60 -3 0 23
-37 58 -82z"/>
<path d="M4610 1777 c152 -148 389 -340 444 -360 10 -4 -28 42 -86 102 -57 60
-137 151 -177 204 l-72 95 -98 31 c-54 17 -103 31 -107 31 -5 -1 38 -47 96
-103z"/>
<path d="M4950 1743 c41 -54 216 -227 295 -292 117 -98 136 -109 193 -117 l52
-7 0 204 0 204 -138 3 c-75 2 -197 10 -270 18 -74 7 -138 14 -144 14 -5 0 0
-12 12 -27z"/>
<path d="M6112 4063 l-54 -4 6 -40 c3 -21 9 -57 12 -78 l5 -39 202 5 c158 4
226 2 315 -11 62 -9 119 -19 127 -22 13 -5 15 -60 15 -390 l0 -384 -235 0
-235 0 0 -80 0 -80 235 0 235 0 0 -489 0 -490 -57 -8 c-96 -13 -291 -8 -381
11 -71 14 -156 41 -223 70 -21 9 -87 -133 -67 -146 62 -40 248 -86 401 -100
292 -27 604 56 823 220 244 182 392 428 435 723 17 118 6 393 -19 489 -116
437 -437 717 -940 821 -76 16 -145 21 -322 23 -124 2 -249 2 -278 -1z m1217
-541 c62 -76 132 -218 163 -327 19 -70 22 -104 22 -275 0 -184 -2 -200 -28
-285 -45 -148 -104 -259 -195 -365 l-30 -35 -1 685 c0 376 4 680 8 675 5 -6
32 -38 61 -73z"/>
<path d="M8113 3823 c4 -368 7 -1003 7 -1413 l0 -744 93 125 c50 68 122 165
158 214 36 50 204 277 373 505 170 228 386 521 482 650 96 129 222 300 281
380 l108 145 3 -972 2 -973 315 0 315 0 0 1135 0 1135 -315 0 -315 0 0 -24 c0
-15 -45 -85 -122 -189 -68 -91 -241 -324 -385 -519 -144 -194 -324 -437 -400
-540 -76 -102 -201 -272 -278 -377 -77 -105 -143 -190 -147 -191 -5 0 -8 276
-8 613 0 336 -3 858 -7 1160 l-6 547 -80 0 -80 0 6 -667z"/>
<path d="M1728 4013 l-198 -3 0 -1135 0 -1135 310 0 310 0 2 183 3 182 140 6
c77 4 176 12 220 19 478 71 790 301 901 665 25 83 28 104 28 265 1 204 -15
286 -86 427 -177 358 -626 542 -1298 531 -74 -2 -224 -4 -332 -5z m709 -174
c196 -22 391 -80 523 -156 98 -57 208 -172 252 -263 51 -104 68 -176 75 -310
12 -235 -55 -422 -202 -564 -176 -170 -467 -268 -805 -270 l-125 -1 -3 780
c-1 429 0 786 3 793 5 14 93 12 282 -9z"/>
</g>
</svg>
