<?xml version="1.0" standalone="no"?>
<!DOCTYPE svg PUBLIC "-//W3C//DTD SVG 20010904//EN"
 "http://www.w3.org/TR/2001/REC-SVG-20010904/DTD/svg10.dtd">
<svg version="1.0" xmlns="http://www.w3.org/2000/svg"
 width="22" height="24" viewBox="0 0 800.000000 800.000000"
 preserveAspectRatio="xMidYMid meet">

<g transform="translate(0.000000,800.000000) scale(0.100000,-0.100000)"
fill="#373bad" stroke="none">
<path d="M2650 7279 c-718 -76 -1315 -138 -1327 -138 l-23 -1 0 -2477 0 -2478
1350 -803 1350 -802 1350 802 1350 803 0 2478 c0 2057 -2 2477 -13 2477 -8 0
-614 63 -1348 140 -734 77 -1345 139 -1359 139 -14 -1 -612 -63 -1330 -140z
m2537 -339 c629 -66 1147 -120 1153 -120 7 0 10 -313 10 -925 0 -573 -4 -925
-9 -925 -6 0 -537 311 -1181 690 -1061 626 -1172 689 -1193 679 -12 -7 -530
-315 -1152 -685 -621 -370 -1138 -676 -1147 -679 -17 -7 -18 41 -18 918 l0
925 113 12 c1152 123 2166 228 2217 229 35 1 578 -53 1207 -119z m-12 -1545
c638 -372 1159 -679 1158 -682 0 -3 -210 -129 -464 -279 l-463 -273 -31 19
c-89 55 -1378 820 -1381 820 -2 0 -4 -55 -4 -122 l1 -123 599 -355 c330 -195
600 -357 600 -360 0 -3 -44 -31 -97 -63 -78 -47 -101 -57 -117 -49 -16 7 -777
457 -953 564 l-33 20 0 -124 0 -124 386 -229 c212 -126 387 -232 390 -237 3
-4 -36 -34 -86 -68 l-91 -61 -292 172 c-161 94 -295 174 -299 176 -5 2 -8 -51
-8 -119 l0 -124 195 -114 c107 -63 193 -115 192 -116 -8 -7 -389 -234 -393
-234 -11 0 -2314 1373 -2314 1379 0 3 521 320 1158 702 809 487 1162 694 1172
689 8 -5 537 -312 1175 -685z m1168 -3006 c-5 -4 -533 -320 -1176 -703 l-1167
-694 -1173 697 -1172 698 -3 1012 c-1 556 1 1011 5 1011 3 0 530 -312 1170
-692 l1163 -693 0 -123 0 -123 -22 12 c-38 20 -1552 921 -1566 932 -9 7 -12
-17 -12 -116 l0 -125 805 -484 805 -483 0 -128 c0 -71 -3 -126 -7 -124 -5 3
-364 217 -800 476 -436 259 -795 471 -798 471 -3 0 -4 -55 -3 -122 l3 -121
802 -483 802 -483 813 487 813 487 -4 520 -3 520 363 217 364 218 3 -1027 c1
-565 -1 -1030 -5 -1034z"/>
</g>
</svg>
